<svg id="Layer_1" data-name="Layer 1" xmlns="http://www.w3.org/2000/svg" viewBox="0 0 1366 768"><defs><style>.cls-1{fill:#e3ecf6;}.cls-2{fill:#835b32;}.cls-3{fill:#fbbc4c;}.cls-4{fill:#6e4c27;}.cls-5{fill:#232323;}.cls-6{fill:#60411f;}.cls-7{fill:#303030;}.cls-8{fill:#dea843;}.cls-9{fill:#f3f1f1;}.cls-10{fill:#bebdbb;}.cls-11{fill:#d2d0ce;}.cls-12{fill:#ae7f46;}.cls-13{fill:#197cf3;}.cls-14{fill:#3a3a3a;}.cls-15,.cls-22{fill:none;stroke-miterlimit:10;}.cls-15{stroke:#d2d1ce;}.cls-16{fill:#d2d1ce;}.cls-17{fill:#f67463;}.cls-18{fill:#f3b63d;}.cls-19{fill:#333232;}.cls-20{fill:#66f684;}.cls-21{fill:#a17040;}.cls-22{stroke:#282828;stroke-width:2px;opacity:0.3;}.cls-23{fill:#4b4949;}.cls-24{fill:#562913;}</style></defs><title>Landing Page</title><rect class="cls-1" x="764.89" y="381.32" width="36.44" height="44.8" transform="translate(-96.94 445.64) rotate(-30)"/><path class="cls-2" d="M764.77,426.77,764,426c-2.5-1.85-2.67-5.91-.38-9l1.84-2.49c2.3-3.1,6.22-4.13,8.73-2.28l.8.6c2.5,1.85,2.67,5.9.38,9l-1.84,2.48C771.22,427.41,767.27,428.62,764.77,426.77Z"/><path class="cls-3" d="M774,425c-.36-1.92-3.77-2.85-5.09-4.06-1.66-1.55-5.31-6.52-7.56-3.29-1.25,1.79-2.45,3.59-3.85,5.27-4.15,5-9.18,9.18-13.4,14.11-4.59,5.36-8.61,11.29-12.9,16.89l-.7.92c-1.83,2-3.66,3.94-5.51,5.9-3.9,4.12-8,8.12-12.88,10.67-4.18,1.15-8.51,1.68-12.6,3.1A19.66,19.66,0,0,0,689,483.08c-.41.31-.82.61-1.22.93-4,3.14-5.44,6.77-4.79,11.15h-.1l3.94,56.6L749.17,546l-6.77-47.28q5.6-15.63,11.18-31.27c4.9-13.71,8.76-29.18,18.62-40.32C772.72,426.5,774.15,425.83,774,425Z"/><path d="M1148.42,486.47l1.51,7.19c.4,1.89,3.29,1.09,2.89-.79l-1.51-7.2c-.39-1.88-3.29-1.09-2.89.8Z"/><rect class="cls-4" x="689.89" y="458.26" width="26.3" height="22.4"/><path class="cls-5" d="M721.38,410.07c-6.14-7.15-13.32-14.76-25.24-12.88-7.53,1.19-4.34,10.54,3.17,9.36,5.14-.81,10.63,6.93,12.93,9.82,3.3,4.14,6.11,9.3,3.12,14.09-3.47,5.56,6.82,10.48,10.3,4.9C731.05,426.72,727.9,417.67,721.38,410.07Z"/><path class="cls-5" d="M714.64,405.94c-1.92-1.57-4.69,1.17-2.75,2.75a27.29,27.29,0,0,1,10.28,22.07c0,2.5,3.84,2.5,3.89,0A30.94,30.94,0,0,0,714.64,405.94Z"/><rect class="cls-6" x="741.57" y="691.68" width="15.34" height="21.79" rx="1.93" ry="1.93" transform="translate(91.09 -85.98) rotate(6.99)"/><rect class="cls-6" x="691.9" y="692.66" width="15.34" height="21.79" rx="1.93" ry="1.93" transform="translate(107.7 -92.73) rotate(8.21)"/><path class="cls-7" d="M782.42,695.83l-50.61,7.06-.89-61.5a30.3,30.3,0,0,0-.58-5.46l-15.82-78.51,33.81-18.32,16.93,88.73c.15.79.34,1.59.56,2.37l8.81,33.14Z"/><path class="cls-7" d="M727.88,703.7l-48.7-1.05,9.32-63.56a33.29,33.29,0,0,0,.35-5.73L687,547.86l31.17,1.95L723,630.75c0,.85.06,1.7.14,2.54l2.8,35.63Z"/><polygon class="cls-7" points="752.49 571.02 691.38 578.94 686.83 547.09 747.94 539.17 752.49 571.02"/><path class="cls-1" d="M735.59,555.25l-11.44-19.82V521.28a4.72,4.72,0,0,0-4.71-4.7h-4.87a4.72,4.72,0,0,0-4.71,4.7v14.57l-11.2,19.4a7.74,7.74,0,0,0,6.7,11.61h23.53A7.74,7.74,0,0,0,735.59,555.25Z"/><path class="cls-2" d="M700,537.79l.1-1.1c-.23-3.11,3.08-5.9,7.35-6.22l3.42-.25c4.27-.31,7.95,2,8.17,5.08l.08,1c.22,3.1-3.08,5.9-7.35,6.21l-3.42.25C704.05,543.07,700.2,540.89,700,537.79Z"/><path class="cls-8" d="M707.85,528.64a51.75,51.75,0,0,1-26.56-3.77h0c-1.86-5.58,3.21-14.73,5.14-19a2.6,2.6,0,0,0-1.11-3.35,10.63,10.63,0,0,0,.23-1.2,58,58,0,0,0,.16-8.76,40.93,40.93,0,0,0,.17-6.84,57,57,0,0,1,5.94-3.45c2.8-1.4.34-5.61-2.46-4.21C672,486.79,656.67,505.8,656.61,526c-.09,27,36.59,21.87,53,17a.65.65,0,0,0,.48-.64l.14-11.25A2.44,2.44,0,0,0,707.85,528.64Z"/><rect class="cls-1" x="943.68" y="88.15" width="423.32" height="662.3"/><polygon class="cls-9" points="1004.98 266.59 1003.4 256.51 994.91 264.96 1004.98 266.59"/><polygon class="cls-10" points="1011.3 750.45 992.64 750.86 965.92 586.46 984.19 583.5 1011.3 750.45"/><polygon class="cls-10" points="831.12 750.45 849.78 750.86 876.5 586.46 858.23 583.5 831.12 750.45"/><rect class="cls-11" x="845.73" y="570.27" width="151.94" height="22.4" rx="7.31" ry="7.31"/><rect class="cls-12" x="932.47" y="540.72" width="15.34" height="21.79" rx="1.93" ry="1.93" transform="translate(74.14 -110.34) rotate(6.99)"/><rect class="cls-12" x="882.8" y="541.69" width="15.34" height="21.79" rx="1.93" ry="1.93" transform="translate(88.09 -121.56) rotate(8.21)"/><path class="cls-13" d="M968.76,544.87l-48.19,7-.85-61.5a31.3,31.3,0,0,0-.56-5.46l-15.06-78.5,30.74-5.15,17.58,75.55a23.9,23.9,0,0,0,.54,2.37l8.39,33.15Z"/><path class="cls-13" d="M918.77,552.73l-48.69-1.05,9.32-63.56a34.2,34.2,0,0,0,.35-5.72l-1.88-83.55H909l4.86,80.94c0,.85.06,1.69.14,2.54l2.8,35.62Z"/><path class="cls-12" d="M811.53,380.38l-.43-1.3a7.08,7.08,0,0,1,3.39-9.38l2.81-1.31a7.07,7.07,0,0,1,9.38,3.39l.52,1.12a7.07,7.07,0,0,1-3.39,9.38L821,383.6A7.12,7.12,0,0,1,811.53,380.38Z"/><path class="cls-14" d="M897.77,325.86c2.86-3.7-.81-10.54-6.73-8.77-28.15,8.4-40.8,39.52-69,47a5.73,5.73,0,0,0-3.91,5.73c.35,4.22,2.46,7.26,3.69,11.33,1.16,3.83,5.63,2.91,8.15,1.45a159.92,159.92,0,0,1,33-14.42c10.79-3.37,21.6-6.41,31.13-12.57a5,5,0,0,0,2.28-5.95,5.47,5.47,0,0,0,.92-2.31,77.9,77.9,0,0,0,.68-20.23A7.08,7.08,0,0,0,897.77,325.86Z"/><path class="cls-13" d="M913.34,574.16h-30c-2.46,0-4.46-2.37-4.46-5.29v-6.82c0-3.32,2.55-5.82,5.3-5.19l30,6.82a5,5,0,0,1,3.6,4.67h0C918,571.46,916,574.16,913.34,574.16Z"/><path class="cls-13" d="M963,575.14H933c-2.46,0-4.46-2.37-4.46-5.29V563c0-3.32,2.55-5.82,5.3-5.2l30,6.82a5,5,0,0,1,3.6,4.67h0C967.71,572.43,965.65,575.14,963,575.14Z"/><line class="cls-15" x1="811.64" y1="730" x2="1060.97" y2="730"/><rect class="cls-16" y="720.74" width="1366" height="47.26"/><rect class="cls-17" x="956.29" y="214.59" width="12.25" height="14.27" rx="2.23" ry="2.23" transform="translate(87.36 679.65) rotate(-40.6)"/><rect class="cls-18" x="975.52" y="217.43" width="12.66" height="50.65" transform="translate(102.66 742.74) rotate(-43.51)"/><rect class="cls-12" x="975.32" y="242.36" width="15.34" height="17.2" rx="7.24" ry="7.24" transform="translate(233 -432.24) rotate(28.01)"/><polygon class="cls-19" points="1004.91 266.26 1004 260.5 999.15 265.33 1004.91 266.26"/><path class="cls-7" d="M722.44,725.13h-30c-2.46,0-4.46-2.37-4.46-5.29V713c0-3.32,2.55-5.82,5.3-5.2l30,6.82a5.05,5.05,0,0,1,3.6,4.67h0C727.14,722.43,725.08,725.13,722.44,725.13Z"/><path class="cls-7" d="M772.11,726.1h-30c-2.47,0-4.46-2.37-4.46-5.29V714c0-3.32,2.54-5.82,5.29-5.19l30,6.82a5,5,0,0,1,3.6,4.67h0C776.81,723.4,774.75,726.1,772.11,726.1Z"/><path class="cls-3" d="M716.12,470.29c-8.88,4.61-20,2.45-28.28,8.49-4.84,2.63-9.08,6.24-10.75,10.68-1.84,4.86,0,9,1.89,13.52q3.51,8.55,7,17.09c2.35,5.72,11.77,3.22,9.39-2.59-.62-1.49-1.23-3-1.84-4.46a4.06,4.06,0,0,0,1.19-4.73,54.74,54.74,0,0,1-3.13-13.89c-.28-3.59.14-5.95,2.09-7.65a42.26,42.26,0,0,1,9.81-3.13,4.71,4.71,0,0,0,1.92-.74c5.3-.93,10.61-1.6,15.6-4.18C726.6,475.81,721.68,467.4,716.12,470.29Z"/><path class="cls-2" d="M723.25,421.85c7.22,16.44,4.16,41.24-10.18,40-17.23-1.51-29.12-3.1-36.35-19.54s-2.67-34.34,10.18-40S716,405.41,723.25,421.85Z"/><path class="cls-20" d="M732.46,549.81H701.8l-3.14,5.44a7.74,7.74,0,0,0,6.7,11.61h23.53a7.74,7.74,0,0,0,6.7-11.61Z"/><path class="cls-5" d="M688.21,396.12l1.16-.21a13.68,13.68,0,0,1,3.26-.19,6.43,6.43,0,0,1,4.87,2.49,7.38,7.38,0,0,1,.7,7c-.85,1.83-2.5,3-3.78,4.47a30.07,30.07,0,0,0-3.14,4.29,29.06,29.06,0,0,0-3.48,9.5,40.21,40.21,0,0,0-.46,10.28,66.54,66.54,0,0,0,1.75,10.58c.86,3.51,1.94,7,3.14,10.38,1.14,3.26,2.4,6.49,3.69,9.7l.57,1.4a6.06,6.06,0,0,0,.54,1.34c1.16,1.55,1.58,3.84.38,5.4a37.22,37.22,0,0,1-11.57,10.2,8.66,8.66,0,0,1-4.27.71,4.91,4.91,0,0,1-3.7-1.31,56.76,56.76,0,0,1-4.54-4.89,54.24,54.24,0,0,1-3.85-5.3,53.47,53.47,0,0,1-3.14-5.63,55.07,55.07,0,0,1-2.44-5.9,55.8,55.8,0,0,1-1.73-6.1,54.47,54.47,0,0,1-1-6.22,57.11,57.11,0,0,1-.32-6.27,55,55,0,0,1,.39-6.28,56.45,56.45,0,0,1,1.09-6.19,54.62,54.62,0,0,1,4.3-11.88,52,52,0,0,1,3.2-5.56,53.12,53.12,0,0,1,3.9-5.21,56.16,56.16,0,0,1,4.6-4.79C681.18,399.25,684.28,396.87,688.21,396.12Z"/><path d="M703.24,426.33a3.26,3.26,0,0,0,1.59,2.86.77.77,0,0,0,1-.27c.68-.94.08-2.26-.62-3a1.12,1.12,0,0,0-1.44-.25,1,1,0,0,0-.15,1.48c.69.67,1.75-.39,1.06-1.06l.12.19v.4l-.28.28h-.4c.15,0,.35.5.41.64a.49.49,0,0,1,0,.59l1-.27a1.73,1.73,0,0,1-.85-1.57.75.75,0,0,0-1.5,0Z"/><path d="M716.89,421.88a6.26,6.26,0,0,0,1.37,3.07.75.75,0,0,0,1.18-.15,3.13,3.13,0,0,0-1.18-3.94c-.83-.52-1.58.78-.76,1.29a1.59,1.59,0,0,1,.65,1.89l1.17-.15a4.94,4.94,0,0,1-1-2.41.74.74,0,0,0-.92-.52.76.76,0,0,0-.52.92Z"/><path d="M713.27,446.47a19.64,19.64,0,0,0,3.33.38c1-.08,2-.39,3-.53.38-.05.22-.63-.16-.58a23.5,23.5,0,0,1-3.22.53,28.46,28.46,0,0,1-2.92-.4c-.39,0-.38.56,0,.6Z"/><path class="cls-21" d="M714.76,430.91l.68,4.25a1.29,1.29,0,0,0,1.86.94l2.33-1.17a1.3,1.3,0,0,0,.34-2.06l-3-3.07A1.3,1.3,0,0,0,714.76,430.91Z"/><line class="cls-22" x1="1024.03" y1="203.57" x2="1367" y2="203.57"/><line class="cls-22" x1="1024.03" y1="276.81" x2="1367" y2="276.81"/><line class="cls-22" x1="1024.03" y1="350.05" x2="1367" y2="350.05"/><line class="cls-22" x1="1024.03" y1="423.29" x2="1367" y2="423.29"/><line class="cls-22" x1="1024.03" y1="496.54" x2="1367" y2="496.54"/><line class="cls-22" x1="1024.03" y1="569.78" x2="1367" y2="569.78"/><path class="cls-23" d="M955.69,344.73a46.11,46.11,0,0,1,3.68-21.88L987.45,260l-13.1-11.4-33.11,54.82c-3.5,5.78-8.84,9.33-14.67,9.75l-7.94.56a36.79,36.79,0,0,0-7-.88h0A37.83,37.83,0,0,0,897,315.28l-6.14.44c-4.45.32-5,2.38-7.13,8.09-7.54,7.32-12.65,17.66-14.57,29.06-5.11,30.32-36.76,117.36-36.76,117.36A195.06,195.06,0,0,1,862.92,454c16.06-6.72,35.4-11.34,43.28-13.71,13-3.89,66.8.71,66.8.71s-7.9-32.13-14.67-59.17Z"/><path class="cls-24" d="M950.48,324.69s-20.89-.63-31.44,2.53c-6.4,1.92-22.13,5.68-35.19,11.14-13.8,5.76-22.85.64-22.85.64s23.8-58.18,28-82.82C892,238,905,223.13,923.47,223.69h0c18.43.55,31.32,15.75,32.5,34.52C957,274.85,950.48,324.69,950.48,324.69Z"/></svg>